# xmcd
#
# Track frame offsets:
#	150
#	16271
#	32735
#	48399
#	63905
#	80555
#	95277
#	110728
#	125656
#	143144
#	155329
#	171859
#	183385
#	198334
#
# Disc length: 2841 seconds
#
# Revision: 1
# Processed by: cddbd v1.5.2PL0 Copyright (c) Steve Scherf et al.
# Submitted via: audiograbber 1.83.01
#
DISCID=ba0b170e
DTITLE=Danielle Bradbery - and The Voice USA (2013)
DYEAR=2013
DGENRE=Country
TTITLE0=Mean - Blind Audition
TTITLE1=Put Your Records On - Battle Round
TTITLE2=Jesus Take The Wheel - Knockout Round
TTITLE3=Maybe It Was Memphis - Live Playoffs
TTITLE4=Wasted - Top 12
TTITLE5=Head Carolina, Tails California - Top 10
TTITLE6=0Grandpa (Tell Me Bout The Good Old Days) - Top 8
TTITLE7=Shake The Sugar Tree - Top 6
TTITLE8=A Little Bit Stronger - Top 6
TTITLE9=Please Remember Me - Top 5
TTITLE10=Who I Am - Top 5
TTITLE11=Timber, I m Falling In Love - Top 3 (with Blake Shelton)
TTITLE12=Maybe It Was Memphis - Top 3
TTITLE13=Born To Fly - Top 3
EXTD=
EXTT0=
EXTT1=
EXTT2=
EXTT3=
EXTT4=
EXTT5=
EXTT6=
EXTT7=
EXTT8=
EXTT9=
EXTT10=
EXTT11=
EXTT12=
EXTT13=
PLAYORDER=
